<svg width="34" height="29" viewBox="0 0 34 29" fill="none" xmlns="http://www.w3.org/2000/svg">
<g id="icon car">
<path id="Vector" d="M30.7315 14.7948C30.733 14.779 30.7407 14.7658 30.7407 14.75C30.7407 13.2914 30.4409 0.5 20.0532 0.5H13.946C7.15385 0.5 3.25851 5.69412 3.25851 14.75C3.25851 14.7658 3.26614 14.779 3.26767 14.7948C1.8213 15.0345 0.713867 16.2905 0.713867 17.8036V22.8929C0.713867 24.5769 2.08339 25.9464 3.76744 25.9464V28.4911C3.76744 28.7725 3.99493 29 4.27637 29H8.3478C8.62923 29 8.85672 28.7725 8.85672 28.4911V25.9464H25.1424V28.4911C25.1424 28.7725 25.3699 29 25.6514 29H29.7228C30.0042 29 30.2317 28.7725 30.2317 28.4911V25.9464C31.9158 25.9464 33.2853 24.5769 33.2853 22.8929V17.8036C33.2853 16.2905 32.1779 15.0345 30.7315 14.7948ZM13.946 1.51786H20.0532C29.4515 1.51786 29.7228 13.3957 29.7228 14.75H28.7049C28.7049 13.5001 28.4479 2.53571 19.5442 2.53571H14.4549C8.5478 2.53571 5.29422 6.87331 5.29422 14.75H4.27637C4.27637 3.23702 10.3347 1.51786 13.946 1.51786ZM12.9282 10.6786C10.6797 10.6786 8.85672 12.5016 8.85672 14.75H6.31208C6.31208 5.49564 10.7403 3.55357 14.4549 3.55357H19.5442C22.7708 3.55357 25.0961 5.16179 26.456 8.33445C27.598 11.0002 27.6871 13.9189 27.6871 14.75H16.9996C16.9996 12.5016 15.1766 10.6786 12.9282 10.6786ZM15.9817 14.75H9.87458C9.87458 13.0639 11.2421 11.6964 12.9282 11.6964C14.6142 11.6964 15.9817 13.0639 15.9817 14.75ZM7.83887 27.9821H4.7853V25.9464H7.83887V27.9821ZM29.2139 27.9821H26.1603V25.9464H29.2139V27.9821ZM32.2674 22.8929C32.2674 24.0156 31.3544 24.9286 30.2317 24.9286H3.76744C2.64474 24.9286 1.73172 24.0156 1.73172 22.8929V17.8036C1.73172 16.6809 2.64474 15.7679 3.76744 15.7679H30.2317C31.3544 15.7679 32.2674 16.6809 32.2674 17.8036V22.8929Z" fill="#7A7A7A"/>
<path id="Vector_2" d="M6.31208 18.3125C5.18939 18.3125 4.27637 19.2255 4.27637 20.3482C4.27637 21.4709 5.18939 22.3839 6.31208 22.3839C7.43478 22.3839 8.3478 21.4709 8.3478 20.3482C8.3478 19.2255 7.43478 18.3125 6.31208 18.3125ZM6.31208 21.3661C5.75073 21.3661 5.29422 20.9096 5.29422 20.3482C5.29422 19.7869 5.75073 19.3304 6.31208 19.3304C6.87343 19.3304 7.32994 19.7869 7.32994 20.3482C7.32994 20.9096 6.87343 21.3661 6.31208 21.3661Z" fill="#7A7A7A"/>
<path id="Vector_3" d="M27.6871 18.3125C26.5644 18.3125 25.6514 19.2255 25.6514 20.3482C25.6514 21.4709 26.5644 22.3839 27.6871 22.3839C28.8098 22.3839 29.7228 21.4709 29.7228 20.3482C29.7228 19.2255 28.8098 18.3125 27.6871 18.3125ZM27.6871 21.3661C27.1257 21.3661 26.6692 20.9096 26.6692 20.3482C26.6692 19.7869 27.1257 19.3304 27.6871 19.3304C28.2484 19.3304 28.7049 19.7869 28.7049 20.3482C28.7049 20.9096 28.2484 21.3661 27.6871 21.3661Z" fill="#7A7A7A"/>
<path id="Vector_4" d="M22.5979 18.8213H11.4015C11.1201 18.8213 10.8926 19.0488 10.8926 19.3302C10.8926 19.6117 11.1201 19.8391 11.4015 19.8391H22.5979C22.8794 19.8391 23.1069 19.6117 23.1069 19.3302C23.1069 19.0488 22.8794 18.8213 22.5979 18.8213Z" fill="#7A7A7A"/>
<path id="Vector_5" d="M22.5979 20.8569H11.4015C11.1201 20.8569 10.8926 21.0844 10.8926 21.3659C10.8926 21.6473 11.1201 21.8748 11.4015 21.8748H22.5979C22.8794 21.8748 23.1069 21.6473 23.1069 21.3659C23.1069 21.0844 22.8794 20.8569 22.5979 20.8569Z" fill="#7A7A7A"/>
<path id="Vector_6" d="M22.4489 6.24788C22.25 6.04889 21.9283 6.04889 21.7293 6.24788C21.5303 6.44687 21.5303 6.76851 21.7293 6.9675L22.7472 7.98536C22.8464 8.0846 22.9767 8.13447 23.107 8.13447C23.2373 8.13447 23.3676 8.0846 23.4668 7.98536C23.6658 7.78637 23.6658 7.46472 23.4668 7.26573L22.4489 6.24788Z" fill="#7A7A7A"/>
<path id="Vector_7" d="M19.904 6.24739C19.705 6.0484 19.3834 6.0484 19.1844 6.24739C18.9854 6.44638 18.9854 6.76802 19.1844 6.96701L22.7469 10.5295C22.8461 10.6288 22.9764 10.6786 23.1067 10.6786C23.237 10.6786 23.3673 10.6288 23.4665 10.5295C23.6655 10.3305 23.6655 10.0089 23.4665 9.80989L19.904 6.24739Z" fill="#7A7A7A"/>
</g>
</svg>
