<svg width="169" height="41" viewBox="0 0 169 41" fill="none" xmlns="http://www.w3.org/2000/svg">
<g id="Logo" clip-path="url(#clip0_170_849)">
<path id="Vector" fill-rule="evenodd" clip-rule="evenodd" d="M10.0148 3V40.5H0V3H10.0148Z" fill="#976E72"/>
<path id="Vector_2" fill-rule="evenodd" clip-rule="evenodd" d="M15.0225 3H36.304C43.2178 3 48.8225 8.59644 48.8225 15.5C48.8225 22.4036 43.2178 28 36.304 28H25.0373V40.5H15.0225V3ZM25.0373 18H36.304C37.6868 18 38.8077 16.8807 38.8077 15.5C38.8077 14.1193 37.6868 13 36.304 13H25.0373V18Z" fill="#976E72"/>
<path id="Vector_3" fill-rule="evenodd" clip-rule="evenodd" d="M86.3781 3V22.375C86.3781 26.8623 90.0211 30.5 94.5151 30.5C99.0091 30.5 102.652 26.8623 102.652 22.375V3H112.667V22.375C112.667 32.3852 104.54 40.5 94.5151 40.5C84.4901 40.5 76.3633 32.3852 76.3633 22.375V3H86.3781Z" fill="#976E72"/>
<path id="Vector_4" fill-rule="evenodd" clip-rule="evenodd" d="M52.5783 20.5C52.5783 10.835 60.4249 3 70.1042 3H72.6079V13H70.1042C65.9559 13 62.5931 16.3579 62.5931 20.5V21.75C62.5931 32.1053 54.186 40.5 43.8153 40.5H42.5635V30.5H43.8153C48.655 30.5 52.5783 26.5825 52.5783 21.75V20.5Z" fill="#976E72"/>
<g id="Vector_5">
<path d="M169 4.25C169 6.32107 167.319 8 165.244 8C163.17 8 161.489 6.32107 161.489 4.25C161.489 2.17893 163.17 0.5 165.244 0.5C167.319 0.5 169 2.17893 169 4.25Z" fill="#976E72"/>
<path d="M169 4.25C169 6.32107 167.319 8 165.244 8C163.17 8 161.489 6.32107 161.489 4.25C161.489 2.17893 163.17 0.5 165.244 0.5C167.319 0.5 169 2.17893 169 4.25Z" fill="white" fill-opacity="0.2"/>
</g>
<path id="Vector_6" d="M123.42 40.4999L128.199 20.518L131.752 32.5392C133.87 39.709 144.041 39.709 146.16 32.5392L149.712 20.518L154.491 40.4999H164.787L157.273 9.07937C155.486 1.60732 144.941 1.33067 142.763 8.69879L138.956 21.5832L135.148 8.6988C132.971 1.33071 122.425 1.60728 120.638 9.07936L113.124 40.4999H123.42Z" fill="#976E72"/>
</g>
<defs>
<clipPath id="clip0_170_849">
<rect width="169" height="40" fill="white" transform="translate(0 0.5)"/>
</clipPath>
</defs>
</svg>
