<svg width="31" height="32" viewBox="0 0 31 32" fill="none" xmlns="http://www.w3.org/2000/svg">
<g id="seat-svgrepo-com(1) 1" clip-path="url(#clip0_170_974)">
<g id="SVGRepo_iconCarrier">
<path id="Vector" d="M29.0621 26.4428V29.0261C29.0621 29.7395 28.4838 30.3178 27.7704 30.3178H9.81166C8.6055 30.3178 7.55987 29.4831 7.29256 28.3069L1.64985 3.47905C1.46615 2.67078 2.08051 1.90112 2.9094 1.90112H7.37239C7.97179 1.90112 8.49243 2.31349 8.62971 2.89695L13.5621 23.8595H26.4787C27.9055 23.8595 29.0621 25.016 29.0621 26.4428Z" stroke="#808080" stroke-width="4" stroke-linecap="round" stroke-linejoin="round"/>
<path id="Vector_2" d="M8.99902 4.48438H11.6246C12.338 4.48438 12.9163 5.06268 12.9163 5.77604V8.35937L10.3329 10.2969" stroke="#808080" stroke-width="4" stroke-linecap="round" stroke-linejoin="round"/>
<path id="Vector_3" d="M17.4375 19.1772H12.4323H9.6875" stroke="#808080" stroke-width="4" stroke-linecap="round" stroke-linejoin="round"/>
</g>
</g>
<defs>
<clipPath id="clip0_170_974">
<rect width="31" height="31" fill="white" transform="translate(0 0.609375)"/>
</clipPath>
</defs>
</svg>
