<svg width="31" height="32" viewBox="0 0 31 32" fill="none" xmlns="http://www.w3.org/2000/svg">
<g id="SVGRepo_iconCarrier">
<g id="Group">
<path id="Vector" d="M10.968 13.7534L14.8931 16.7815L14.9477 16.8128L14.9722 16.8265C15.3116 17.0155 15.7609 16.9153 16.0605 16.5856L16.0867 16.5605L20.8974 10.8689C21.1713 10.5619 21.1758 10.12 20.9093 9.88303C20.6423 9.64556 20.2043 9.70253 19.9315 10.0095L15.4347 14.8133L11.963 12.3957C11.6383 12.1565 11.1515 12.2676 10.8763 12.6429C10.6018 13.0171 10.6422 13.5148 10.968 13.7534Z" fill="#808080"/>
<path id="Vector_2" d="M6.08156 15.6089C6.08156 15.401 6.0861 15.1932 6.10808 14.9893H3.64407C3.629 15.1931 3.625 15.401 3.625 15.6089C3.625 15.8208 3.629 16.0252 3.64407 16.2296H6.10808C6.0861 16.0252 6.08156 15.8179 6.08156 15.6089Z" fill="#808080"/>
<path id="Vector_3" d="M10.4398 7.66522C10.6728 7.51772 10.9105 7.37876 11.152 7.25519L11.246 7.20959L10.0181 5.07739C9.71083 5.23227 9.41154 5.40423 9.12109 5.59278L10.3496 7.72613L10.4398 7.66522Z" fill="#808080"/>
<path id="Vector_4" d="M4.96875 10.1262L7.10186 11.354L7.61815 10.4582L5.4842 9.22974C5.29565 9.52019 5.12393 9.81863 4.96875 10.1262Z" fill="#808080"/>
<path id="Vector_5" d="M23.8548 19.9576C23.7266 20.1997 23.5919 20.4365 23.4404 20.6661L23.3789 20.756L25.5126 21.9844C25.7014 21.694 25.8734 21.3995 26.0322 21.0926L23.904 19.8601L23.8548 19.9576Z" fill="#808080"/>
<path id="Vector_6" d="M7.14685 19.9535L7.09756 19.8601L4.96875 21.088C5.12024 21.395 5.29559 21.694 5.48414 21.9844L7.61809 20.756L7.55597 20.6661C7.40884 20.4365 7.26988 20.1996 7.14685 19.9535Z" fill="#808080"/>
<path id="Vector_7" d="M10.4398 23.5488L10.3496 23.4873L9.12109 25.6212C9.4116 25.8097 9.71083 25.9857 10.0181 26.1412L11.246 24.0078L11.152 23.9623C10.9105 23.8392 10.6727 23.7003 10.4398 23.5488Z" fill="#808080"/>
<path id="Vector_8" d="M19.751 7.20639L20.6477 7.72637L21.8759 5.59302C21.5856 5.40448 21.2901 5.23252 20.984 5.07764L19.751 7.20639Z" fill="#808080"/>
<path id="Vector_9" d="M14.8809 25.0017V27.4626C15.0853 27.4808 15.2926 27.4848 15.5002 27.4848C15.7086 27.4848 15.9162 27.4808 16.1201 27.4626V25.0017V24.9761H14.8809V25.0017Z" fill="#808080"/>
<path id="Vector_10" d="M16.1201 6.21696V3.75611C15.9162 3.73782 15.7086 3.73389 15.5002 3.73389C15.2926 3.73389 15.0853 3.73782 14.8809 3.75611V6.21696V6.24257H16.1201V6.21696Z" fill="#808080"/>
<path id="Vector_11" d="M19.751 24.0118L20.984 26.1412C21.2901 25.9812 21.5856 25.8097 21.8759 25.6212L20.6477 23.4873L19.751 24.0118Z" fill="#808080"/>
<path id="Vector_12" d="M26.0322 10.1262C25.8765 9.81863 25.7013 9.52025 25.5126 9.22974L23.3789 10.4582L23.8997 11.354L26.0322 10.1262Z" fill="#808080"/>
<path id="Vector_13" d="M27.3565 14.9893H24.8928H24.8672V16.2296H24.8928H27.3565C27.3719 16.0252 27.3753 15.8179 27.3753 15.6089C27.3753 15.401 27.3719 15.1931 27.3565 14.9893Z" fill="#808080"/>
<path id="Vector_14" d="M15.5 0.109131C6.93887 0.109676 0.000544933 7.04854 0 15.6094C0.000544933 24.1703 6.93887 31.1091 15.5 31.1097C24.0611 31.1091 30.9995 24.1703 31 15.6094C30.9995 7.04854 24.0611 0.109676 15.5 0.109131ZM15.5 29.1096C11.7686 29.109 8.39965 27.6004 5.95393 25.1555C3.5093 22.7089 2.00039 19.3402 2.00008 15.6094C2.00039 11.8786 3.5093 8.50939 5.95387 6.06391C8.39965 3.61838 11.7686 2.10976 15.5 2.10921C19.2309 2.10982 22.5997 3.61844 25.0461 6.06391C27.4907 8.50939 28.9996 11.878 28.9999 15.6094C28.9996 19.3402 27.4906 22.7089 25.0461 25.1555C22.5997 27.6004 19.2309 29.109 15.5 29.1096Z" fill="#808080"/>
</g>
</g>
</svg>
