<svg width="26" height="22" viewBox="0 0 26 22" fill="none" xmlns="http://www.w3.org/2000/svg">
<path id="Vector" d="M3.63059 20.9169C3.76878 20.9169 3.88073 20.7975 3.88073 20.6501V13.1526C3.88073 13.0053 3.76878 12.8859 3.63059 12.8859H1.62939C1.59654 12.8859 1.56401 12.8928 1.53366 12.9062C1.5033 12.9196 1.47572 12.9392 1.45249 12.964C1.42927 12.9888 1.41084 13.0182 1.39827 13.0505C1.3857 13.0829 1.37924 13.1176 1.37924 13.1526V20.6501C1.37924 20.7975 1.4912 20.9169 1.62939 20.9169H3.63059ZM3.63059 21.9838H1.62939C0.938599 21.9838 0.378645 21.3867 0.378645 20.6501V13.1526C0.378645 12.416 0.938599 11.8189 1.62939 11.8189H3.63059C4.32138 11.8189 4.88133 12.416 4.88133 13.1526V20.6501C4.88133 21.3867 4.32138 21.9838 3.63059 21.9838ZM10.4319 20.9169C10.5701 20.9169 10.682 20.7975 10.682 20.6501V11.6044C10.682 11.4571 10.5701 11.3377 10.4319 11.3377H8.43067C8.39781 11.3377 8.36528 11.3446 8.33493 11.358C8.30458 11.3714 8.277 11.391 8.25377 11.4158C8.23054 11.4406 8.21211 11.47 8.19954 11.5023C8.18698 11.5347 8.18051 11.5694 8.18052 11.6044V20.6501C8.18052 20.7975 8.29247 20.9169 8.43067 20.9169H10.4319ZM10.4319 21.9838H8.43067C7.73987 21.9838 7.17992 21.3867 7.17992 20.6501V11.6044C7.17992 10.8678 7.73987 10.2707 8.43067 10.2707H10.4319C11.1227 10.2707 11.6826 10.8678 11.6826 11.6044V20.6501C11.6826 21.3867 11.1227 21.9838 10.4319 21.9838ZM17.2331 20.933C17.3713 20.933 17.4833 20.8136 17.4833 20.6662V10.072C17.4833 9.92484 17.3712 9.8053 17.2331 9.8053H15.2319C15.0939 9.8053 14.9818 9.92484 14.9818 10.072V20.6662C14.9818 20.8136 15.0937 20.933 15.2319 20.933H17.2331ZM17.2331 21.9999H15.2319C14.5411 21.9999 13.9812 21.4028 13.9812 20.6662V10.072C13.9812 9.3356 14.5412 8.73831 15.2319 8.73831H17.2331C17.9239 8.73831 18.4839 9.3356 18.4839 10.072V20.6662C18.4839 21.4028 17.9239 21.9999 17.2331 21.9999ZM24.0344 20.933C24.1726 20.933 24.2846 20.8136 24.2846 20.6663V8.73836C24.2846 8.591 24.1726 8.47161 24.0344 8.47161H22.0332C22.0004 8.4716 21.9678 8.4785 21.9375 8.4919C21.9071 8.50531 21.8795 8.52495 21.8563 8.54972C21.8331 8.5745 21.8147 8.6039 21.8021 8.63627C21.7895 8.66864 21.7831 8.70333 21.7831 8.73836V20.6663C21.7831 20.8136 21.895 20.933 22.0332 20.933H24.0344ZM24.0344 22H22.0332C21.3424 22 20.7825 21.4029 20.7825 20.6663V8.73836C20.7825 8.00173 21.3424 7.40462 22.0332 7.40462H24.0344C24.7252 7.40462 25.2852 8.00173 25.2852 8.73836V20.6663C25.2852 21.4029 24.7252 22 24.0344 22ZM23.8828 0.0687921C16.8326 4.30443 8.96385 6.80319 0.755262 7.33264C0.479462 7.35044 0.2694 7.60327 0.286085 7.89737C0.30277 8.19147 0.539874 8.41547 0.815674 8.39768C9.17652 7.8584 17.1924 5.31291 24.374 0.998398C24.6147 0.853771 24.6999 0.528437 24.5643 0.271719C24.4286 0.0149997 24.1236 -0.0758353 23.8828 0.0687921Z" fill="#7A7A7A"/>
</svg>
