<svg width="1507" height="863" viewBox="0 0 1507 863" fill="none" xmlns="http://www.w3.org/2000/svg">
<path d="M-58.5524 691.5C-44.0633 643.289 -23.8511 601.305 0.947548 564.747V-184L1506.95 -99.9998C1356.83 4.51089 1265.5 159 1202.5 216C1139.5 273 1070.46 320.404 803.448 319.5C569.921 318.709 173.896 309.786 0.947548 564.747V691.5C0.947548 691.5 -174.091 1075.94 -58.5524 691.5Z" fill="#976E72"/>
<path d="M-58.5524 691.5C-44.0633 643.289 -23.8511 601.305 0.947548 564.747V-184L1506.95 -99.9998C1356.83 4.51089 1265.5 159 1202.5 216C1139.5 273 1070.46 320.404 803.448 319.5C569.921 318.709 173.896 309.786 0.947548 564.747V691.5C0.947548 691.5 -174.091 1075.94 -58.5524 691.5Z" fill="white" fill-opacity="0.69"/>
</svg>
