<svg width="39" height="35" viewBox="0 0 39 35" fill="none" xmlns="http://www.w3.org/2000/svg">
<g id="cart">
<path id="Vector" d="M14.625 32.0832C15.5225 32.0832 16.25 31.4303 16.25 30.6248C16.25 29.8194 15.5225 29.1665 14.625 29.1665C13.7275 29.1665 13 29.8194 13 30.6248C13 31.4303 13.7275 32.0832 14.625 32.0832Z" stroke="#976E72" stroke-width="2" stroke-linecap="round" stroke-linejoin="round"/>
<path id="Vector_2" d="M32.5 32.0832C33.3975 32.0832 34.125 31.4303 34.125 30.6248C34.125 29.8194 33.3975 29.1665 32.5 29.1665C31.6025 29.1665 30.875 29.8194 30.875 30.6248C30.875 31.4303 31.6025 32.0832 32.5 32.0832Z" stroke="#976E72" stroke-width="2" stroke-linecap="round" stroke-linejoin="round"/>
<path id="Vector_3" d="M1.625 1.4585H8.125L12.48 20.9856C12.6286 21.657 13.0356 22.2601 13.6298 22.6893C14.2239 23.1186 14.9674 23.3466 15.73 23.3335H31.525C32.2876 23.3466 33.0311 23.1186 33.6252 22.6893C34.2194 22.2601 34.6264 21.657 34.775 20.9856L37.375 8.75016H9.75" fill="#976E72"/>
</g>
</svg>
